<svg xmlns="http://www.w3.org/2000/svg" width="24" height="24" fill="none"><circle cx="13.5" cy="10.5" r="9" fill="url(#a)" opacity=".6"/><mask id="c" width="15" height="15" x="6" y="3" maskUnits="userSpaceOnUse" style="mask-type:alpha"><circle cx="13.5" cy="10.5" r="6.75" fill="url(#b)"/></mask><g mask="url(#c)"><circle cx="13.5" cy="10.5" r="6.75" fill="url(#d)"/><path fill="url(#e)" d="m12.375 19.5-5.011-3.17-3.239-2.83 3.75-1.5 11.25 3-1.875 3z"/></g><path fill="url(#f)" fill-rule="evenodd" d="M6.457 22.488a5.32 5.32 0 1 1 5.598-6.252 3.246 3.246 0 1 1 .924 6.252v.012H6.457z" clip-rule="evenodd"/><defs><linearGradient id="a" x1="6.923" x2="18.346" y1="3.231" y2="19.5" gradientUnits="userSpaceOnUse"><stop stop-color="#FFEE6D"/><stop offset="1" stop-color="#FFBF41"/></linearGradient><linearGradient id="b" x1="8.567" x2="17.135" y1="5.048" y2="17.25" gradientUnits="userSpaceOnUse"><stop stop-color="#FFEE6D"/><stop offset="1" stop-color="#FFBF41"/></linearGradient><linearGradient id="d" x1="8.567" x2="17.135" y1="5.048" y2="17.25" gradientUnits="userSpaceOnUse"><stop stop-color="#FFEE6D"/><stop offset="1" stop-color="#FFBF41"/></linearGradient><linearGradient id="e" x1="5.768" x2="16.487" y1="12" y2="20.261" gradientUnits="userSpaceOnUse"><stop offset=".236" stop-color="#F2A83C"/><stop offset=".958" stop-color="#F2A83C" stop-opacity="0"/></linearGradient><linearGradient id="f" x1="13.25" x2="-4.658" y1="8.404" y2="16.317" gradientUnits="userSpaceOnUse"><stop stop-color="#E4EAF7"/><stop offset=".953" stop-color="#DAE0F2"/></linearGradient></defs></svg>